<svg xmlns="http://www.w3.org/2000/svg" xmlns:xlink="http://www.w3.org/1999/xlink" viewBox="0 0 2100 700">
  <defs>
    <style>
      .cls-1, .cls-13 {
        fill: #fff;
      }

      .cls-2 {
        fill: #2b2222;
      }

      .cls-3 {
        fill: #eaea42;
      }

      .cls-4 {
        fill: #f7f5f5;
      }

      .cls-5 {
        fill: #eaea2d;
      }

      .cls-10, .cls-11, .cls-12, .cls-5, .cls-9 {
        stroke: #000;
      }

      .cls-10, .cls-11, .cls-12, .cls-13, .cls-5, .cls-9 {
        stroke-miterlimit: 10;
      }

      .cls-6 {
        fill: #e5d50e;
      }

      .cls-7 {
        fill: #8a8a8a;
      }

      .cls-8 {
        fill: #096606;
      }

      .cls-9 {
        fill: #fbe5ba;
      }

      .cls-10 {
        fill: #6f0c72;
      }

      .cls-12 {
        fill: #f4f408;
      }

      .cls-13 {
        stroke: #1d1d1b;
        stroke-linecap: round;
      }
    </style>
  </defs>
  <title>nytidslinje</title>
  <g id="baggrund">
    <image width="732" height="305" transform="translate(-30 -192) scale(2.95)" xlink:href="../b3lw5miz5cz11.jpg"/>
  </g>
  <g id="linje">
    <g>
      <rect class="cls-1" x="31.5" y="647.5" width="2024" height="25" rx="11.5"/>
      <path d="M2044,648a11,11,0,0,1,11,11v2a11,11,0,0,1-11,11H43a11,11,0,0,1-11-11v-2a11,11,0,0,1,11-11H2044m0-1H43a12,12,0,0,0-12,12v2a12,12,0,0,0,12,12H2044a12,12,0,0,0,12-12v-2a12,12,0,0,0-12-12Z"/>
    </g>
  </g>
  <g id="dagbog1">
    <g>
      <circle class="cls-1" cx="96" cy="586" r="33.5"/>
      <path d="M96,553a33,33,0,1,1-33,33,33,33,0,0,1,33-33m0-1a34,34,0,1,0,34,34,34,34,0,0,0-34-34Z"/>
    </g>
    <g>
      <rect class="cls-2" x="82.5" y="563.5" width="27" height="44" transform="translate(-134.27 38.69) rotate(-13.52)"/>
      <path d="M103.61,561.56l10.06,41.8-25.28,6.08-10.06-41.8,25.28-6.08m.74-1.21L77.13,566.9l10.52,43.75,27.22-6.55-10.52-43.75Z"/>
    </g>
  </g>
  <g id="ring1">
    <g>
      <circle class="cls-1" cx="219.5" cy="594.5" r="34"/>
      <path d="M219.5,561A33.5,33.5,0,1,1,186,594.5,33.54,33.54,0,0,1,219.5,561m0-1A34.5,34.5,0,1,0,254,594.5,34.5,34.5,0,0,0,219.5,560Z"/>
    </g>
    <g>
      <path class="cls-3" d="M216.72,616a17.65,17.65,0,0,1-3.75-.41,17.35,17.35,0,0,1,3.65-34.32,17.65,17.65,0,0,1,3.75.41A17.35,17.35,0,0,1,216.72,616Z"/>
      <path d="M216.62,581.76h0a17.19,17.19,0,0,1,3.64.39,16.91,16.91,0,0,1,10.65,7.38,16.68,16.68,0,0,1,2.31,12.7,17,17,0,0,1-16.5,13.26,17.2,17.2,0,0,1-3.64-.4,16.85,16.85,0,0,1,3.54-33.33m0-1a17.85,17.85,0,0,0-3.76,35.31,18.32,18.32,0,0,0,3.86.42,17.85,17.85,0,0,0,3.75-35.31,18.15,18.15,0,0,0-3.85-.42Z"/>
    </g>
    <g>
      <rect x="209.47" y="575.72" width="20.53" height="19.74" transform="translate(-286.52 218.31) rotate(-33.47)"/>
      <path d="M222.72,572.39,233.05,588l-16.29,10.78-10.33-15.63,16.29-10.77M223,571l-18,11.87,11.44,17.3,18-11.87L223,571Z"/>
    </g>
    <g>
      <circle class="cls-4" cx="216.5" cy="598.5" r="11"/>
      <path d="M216.5,588A10.5,10.5,0,1,1,206,598.5,10.51,10.51,0,0,1,216.5,588m0-1A11.5,11.5,0,1,0,228,598.5,11.5,11.5,0,0,0,216.5,587Z"/>
    </g>
  </g>
  <g id="halskaede1">
    <g>
      <circle class="cls-1" cx="353" cy="597" r="33.5"/>
      <path d="M353,564a33,33,0,1,1-33,33,33,33,0,0,1,33-33m0-1a34,34,0,1,0,34,34,34,34,0,0,0-34-34Z"/>
    </g>
    <path class="cls-5" d="M357.5,573.5h-8a12,12,0,0,0-12,12v24a12,12,0,0,0,12,12h8a12,12,0,0,0,12-12v-24A12,12,0,0,0,357.5,573.5Zm-1.81,17.57c2.37,3.11,4.33,4.94,4.82,8.95.59,4.76.9,10.44-1.78,14.67-3.59,5.67-10.19,4.44-15.15,1.5-5.54-3.28-.5-11.92,5.05-8.64a15.7,15.7,0,0,0,1.95,1c0-.35.11-.69.14-.59-.44-1.87-.1-5.12-.11-7.15v-.2c-.21-.27-.46-.6-.57-.73-1.28-1.52-2.54-3.08-3.68-4.7-2.3-3.28-4.46-7.69-2.29-11.58,2.88-5.16,9.83-4,14.6-3.1,6.32,1.22,3.63,10.86-2.66,9.64l-1-.11C355.28,590.45,355.51,590.83,355.69,591.07Z"/>
  </g>
  <g id="pokal1">
    <g>
      <circle class="cls-1" cx="483" cy="597" r="31.5"/>
      <path d="M483,566a31,31,0,1,1-31,31,31,31,0,0,1,31-31m0-1a32,32,0,1,0,32,32,32,32,0,0,0-32-32Z"/>
    </g>
    <g>
      <path class="cls-6" d="M487.94,622.81c-2.05,0-4.07-.09-5.4-.15-3.64-.16-9.72-.43-10.16-1.81-.15-.48,1.05-1.16,2.32-1.88,2-1.13,4.72-2.67,6.13-5.4,1.22-2.35.73-4.05,0-6.42a28.43,28.43,0,0,1-1.19-5.84c-.55-6.13,1.11-12.28,2.5-13.82.19-.21.31-.26.34-.26.89,0,2.84,6.25,3.47,13.6a47,47,0,0,1,.1,6.12c-.09,2.45-.15,3.92,1.14,6.16,1.83,3.14,4.68,4.89,6.76,6.17,1.34.82,2.49,1.53,2.3,2S495,622.81,487.94,622.81Z"/>
      <path d="M482.5,587.87c.9,1.18,2.46,6.76,3,13a47.89,47.89,0,0,1,.1,6.06c-.09,2.45-.16,4.07,1.21,6.43,1.89,3.25,4.8,5,6.93,6.35a10.17,10.17,0,0,1,2.06,1.47c-.19.22-1.37,1.13-7.85,1.13-2,0-4-.09-5.38-.15-2.7-.12-8.93-.39-9.67-1.4A10.23,10.23,0,0,1,475,619.4c2-1.15,4.84-2.74,6.33-5.6,1.31-2.52.76-4.4.07-6.78a28.53,28.53,0,0,1-1.18-5.76c-.58-6.52,1.33-12.24,2.33-13.39m0-1.14h0c-1.54,0-4,7.22-3.33,14.62.57,6.42,3.08,8.38,1.21,12-2.46,4.74-9.1,5.74-8.49,7.66.55,1.72,6.15,2,10.61,2.16,1.38.06,3.38.15,5.43.15,4,0,8.26-.33,8.82-1.83.73-2-5.88-3.09-9.09-8.62-2-3.45-.59-5-1.19-12.07-.51-6.08-2.34-14.06-4-14.06Z"/>
    </g>
    <g>
      <path class="cls-6" d="M483.17,598.7c-6.17,0-12.27-5.81-14.88-11.28-1.82-3.81-1.91-7.18-.24-9.24,2-2.44,6.77-3.68,14.25-3.68.91,0,1.71,0,2.32,0,4.69.11,10,.23,12.39,2.72,1.89,2,2,5.64.27,9.8-2.34,5.67-7.85,11.49-13.87,11.65Z"/>
      <path d="M482.3,575h0c.91,0,1.7,0,2.31,0,4.59.1,9.79.22,12,2.57,1.74,1.83,1.81,5.29.17,9.26-2.28,5.52-7.62,11.19-13.42,11.34h-.23c-6,0-11.89-5.66-14.43-11-1.73-3.64-1.84-6.81-.3-8.71,1.29-1.6,4.74-3.5,13.86-3.5m0-1c-4.5,0-11.86.43-14.64,3.87-5,6.17,5.37,21.33,15.51,21.33h.25c10.38-.27,19.38-16.62,13.95-22.29-2.53-2.65-8-2.77-12.73-2.88-.62,0-1.42,0-2.34,0Z"/>
    </g>
  </g>
  <g id="diadem1">
    <g>
      <circle class="cls-1" cx="604" cy="597" r="31.5"/>
      <path d="M604,566a31,31,0,1,1-31,31,31,31,0,0,1,31-31m0-1a32,32,0,1,0,32,32,32,32,0,0,0-32-32Z"/>
    </g>
    <g>
      <path class="cls-7" d="M625.49,614.18c-.23-.2-.6-.58-1-.94a38.14,38.14,0,0,0-4.43-3.94,34.6,34.6,0,0,0-4.26-2.75,26.23,26.23,0,0,0-6.06-2.48,62.45,62.45,0,0,0-7.22-1h-.47v.17c-1.36.19-4.06.59-6.11,1.07a32.09,32.09,0,0,0-7.82,3,36,36,0,0,0-7.75,6.06l-.3.3.39-.6c1.74-2.7,5-7.72,5.3-14.24a30.51,30.51,0,0,0-1.68-10.71,17.69,17.69,0,0,1-.58-2.22A24.15,24.15,0,0,1,586,589c2.1,2.93,3.57,4.85,4.8,4.85a1.07,1.07,0,0,0,.65-.21c1.18-.84.91-4.09.37-8.95a39.54,39.54,0,0,1-.36-4.52c.38.65.93,2,1.4,3.07,1.79,4.3,3.21,7.35,5,7.35a1.15,1.15,0,0,0,.26,0c1.79-.31,2.69-3.88,3.69-8.5.22-1,.47-2.17.69-2.92.07.66.11,1.6.14,2.42.16,4,.41,7.22,1.91,8.13a1.62,1.62,0,0,0,.86.24c1.76,0,3.82-2.74,5.81-5.38,1.07-1.42,2.69-3.57,3.24-3.57.49.42-.14,3.81-.51,5.83-.71,3.84-1.1,6.23-.17,7.07a1.11,1.11,0,0,0,.72.27c1.27,0,3-2.09,5.71-5.54,1.42-1.82,3.57-4.56,4.22-4.56a11.63,11.63,0,0,1-.64,3,38.55,38.55,0,0,0-1.74,12,39.84,39.84,0,0,0,2.72,12.57A18.26,18.26,0,0,1,625.49,614.18Z"/>
      <path d="M614.06,581.81a33.74,33.74,0,0,1-.67,4.94c-.77,4.13-1.14,6.51,0,7.53a1.54,1.54,0,0,0,1,.4c1.53,0,3.31-2.18,6.1-5.73a49.31,49.31,0,0,1,3.18-3.8c-.12.53-.3,1.19-.47,1.8a38.92,38.92,0,0,0-1.76,12.12,40.27,40.27,0,0,0,2.75,12.73l.24.66a37.75,37.75,0,0,0-4.07-3.56,35.59,35.59,0,0,0-4.32-2.79,27,27,0,0,0-6.18-2.53,62.61,62.61,0,0,0-7.34-1h-.95l0,.24c-1.45.2-3.84.57-5.74,1a32.5,32.5,0,0,0-7.94,3.08,31,31,0,0,0-5.36,3.81,26.59,26.59,0,0,0,3.74-11.83,31.11,31.11,0,0,0-1.7-10.88v0l1,1.33c2.26,3.15,3.74,5.06,5.21,5.06a1.67,1.67,0,0,0,.94-.3c1.36-1,1.21-3.75.58-9.41-.07-.59-.14-1.24-.21-1.87.1.23.2.45.28.67,1.88,4.48,3.37,7.65,5.45,7.65a1.87,1.87,0,0,0,.34,0c2-.36,3-3.69,4-8.39.18,3.67.54,6.5,2.1,7.45a2.22,2.22,0,0,0,1.12.31c2,0,4-2.71,6.21-5.58a29.26,29.26,0,0,1,2.51-3.07M602.52,578c-1,0-1.93,11.63-4.56,12.1l-.17,0c-2.62,0-5.41-10.78-6.54-10.78a.13.13,0,0,0-.08,0c-1.11.56,1.77,12.6-.06,13.9a.6.6,0,0,1-.36.12c-1.94,0-6.13-8-7.41-8a.24.24,0,0,0-.18.07c-.83.75,2.5,6.32,2.13,13.45-.47,9.29-6.91,15.41-6.33,16.26a.14.14,0,0,0,.12.06c.73,0,3.78-4.3,9.31-7.38a31.85,31.85,0,0,1,7.69-3c2.86-.68,6.92-1.17,6.92-1.17l-.44-.06a64.7,64.7,0,0,1,7.09,1,25.43,25.43,0,0,1,6,2.44,33.29,33.29,0,0,1,4.2,2.71c3.77,2.84,5.25,5.13,5.9,5.13a.21.21,0,0,0,.17-.08c.89-.87-3.12-6.94-3.39-15.71-.27-8.55,3.18-14.37,2.16-15.35a.36.36,0,0,0-.28-.11c-1.85,0-7.77,10.1-9.93,10.1a.54.54,0,0,1-.38-.15c-1.53-1.36,2.11-11.67.64-12.91a.48.48,0,0,0-.3-.11c-1.79,0-6.31,9-9,9a1.19,1.19,0,0,1-.6-.17c-2.3-1.4-1.23-11.12-2.19-11.29Z"/>
    </g>
  </g>
  <g id="nagini1">
    <g>
      <circle class="cls-1" cx="995" cy="593" r="31.5"/>
      <path d="M995,562a31,31,0,1,1-31,31,31,31,0,0,1,31-31m0-1a32,32,0,1,0,32,32,32,32,0,0,0-32-32Z"/>
    </g>
    <g>
      <path class="cls-8" d="M987.08,618.45a9.32,9.32,0,0,1-5.82-1.72c-3.58-2.75-3.49-8.05-2.22-12.1.84-2.68,1.9-3.85,2.18-3.86s.63,1.46.87,2.35c.73,2.68,1.73,6.35,5,7.35a6.57,6.57,0,0,0,1.88.26,14.68,14.68,0,0,0,9.6-4.44,6.77,6.77,0,0,0,2.24-4.74c-.12-3.29-4.06-5.11-8.23-7-4.48-2.07-9.55-4.4-10.64-8.86-1.48-6.06,5.33-11.82,6.11-12.46,1.74-1.42,6.3-4.71,11.27-4.71a10,10,0,0,1,3.1.48c2.2.71,4.43,2.31,5.08,3.64a1.16,1.16,0,0,1,.13.89c-.35,1-3,1.08-5.58,1.19-3.87.16-8.68.36-10.93,3.22-2.5,3.16-.49,7.65-.06,8.52,2.24,4.55,7.22,6.15,11.62,7.55,3.78,1.22,7.36,2.36,8.47,5.17,2,5-4.84,11.53-9.6,14.52C998.72,615.45,992.49,618.45,987.08,618.45Z"/>
      <path d="M999.32,568v1a9.56,9.56,0,0,1,2.94.45c2,.66,4.2,2.18,4.79,3.39a.71.71,0,0,1,.11.5c-.24.65-3.18.78-5.13.86-4,.16-8.91.37-11.31,3.41-2.68,3.4-.56,8.14-.11,9,2.34,4.74,7.43,6.37,11.91,7.81,3.83,1.23,7.14,2.29,8.17,4.87,1.76,4.42-4.44,10.8-9.41,13.91-2.78,1.75-8.9,4.7-14.2,4.7a8.81,8.81,0,0,1-5.52-1.62c-2.7-2.08-3-5.55-2.75-8.09a14.16,14.16,0,0,1,2.27-6.74,17.53,17.53,0,0,1,.53,1.75c.72,2.64,1.8,6.62,5.33,7.7a6.92,6.92,0,0,0,2,.28,15.2,15.2,0,0,0,10-4.6,7.18,7.18,0,0,0,2.38-5.1c-.14-3.6-4.21-5.47-8.52-7.46s-9.33-4.3-10.36-8.52c-1.41-5.75,5.18-11.34,5.94-11.95,1.69-1.39,6.15-4.6,11-4.6v-1m0,0c-5.68,0-10.8,4.18-11.58,4.82s-7.85,6.57-6.29,13c2.17,8.87,18.62,9.44,18.86,15.78.15,4.09-6.56,8.66-11.34,8.66a5.65,5.65,0,0,1-1.73-.24c-4.83-1.47-4.39-9.72-6-9.72h0c-2,.07-6.54,12-.25,16.86a9.85,9.85,0,0,0,6.13,1.82c5.35,0,11.51-2.83,14.74-4.85,4.89-3.07,11.9-9.85,9.8-15.13-2.54-6.4-16-4.48-20.11-12.75-.25-.5-2.38-5,0-8,3.77-4.77,15.52-1.63,16.59-4.53.59-1.63-2.5-4.21-5.53-5.19a10.57,10.57,0,0,0-3.25-.5Z"/>
    </g>
    <g>
      <path d="M1001.31,573.08a1.37,1.37,0,1,1,1.64-1.34A1.51,1.51,0,0,1,1001.31,573.08Z"/>
      <path d="M1001.31,570.9c.62,0,1.14.39,1.14.84s-.52.84-1.14.84-1.13-.39-1.13-.84.52-.84,1.13-.84m0-1a1.86,1.86,0,1,0,2.14,1.84,2,2,0,0,0-2.14-1.84Z"/>
    </g>
  </g>
  <g id="quirrell1">
    <g>
      <circle class="cls-1" cx="871" cy="595" r="31.5"/>
      <path d="M871,564a31,31,0,1,1-31,31,31,31,0,0,1,31-31m0-1a32,32,0,1,0,32,32,32,32,0,0,0-32-32Z"/>
    </g>
    <ellipse class="cls-9" cx="866.75" cy="594" rx="11.99" ry="14.25"/>
    <ellipse class="cls-10" cx="882.48" cy="599.63" rx="4.52" ry="19.88"/>
    <ellipse class="cls-10" cx="866.75" cy="582" rx="20.25" ry="9"/>
    <ellipse class="cls-11" cx="870.88" cy="594" rx="1.97" ry="1.88"/>
    <ellipse class="cls-11" cx="862.23" cy="594" rx="1.57" ry="1.5"/>
  </g>
  <g id="harry1">
    <g>
      <circle class="cls-1" cx="737" cy="597" r="34.5"/>
      <path d="M737,563a34,34,0,1,1-34,34,34,34,0,0,1,34-34m0-1a35,35,0,1,0,35,35,35,35,0,0,0-35-35Z"/>
    </g>
    <path class="cls-12" d="M735.14,589.64c1.33,2.72,24.32-7.37,25.79-4.35,1.11,2.26-11.59,8.37-26.22,24-8.93,9.52-15,18.73-15.58,18.3s2.72-5.61,8.06-16.56c4.42-9.07,4.92-10.9,4.08-12.2-2.86-4.41-18,2.54-18.91.66C710.75,596,759.87,568.91,760.5,570,761,570.88,733.66,586.6,735.14,589.64Z"/>
  </g>
  <g id="dagbog2">
    <g>
      <circle class="cls-1" cx="1231" cy="596" r="33.5"/>
      <path d="M1231,563a33,33,0,1,1-33,33,33,33,0,0,1,33-33m0-1a34,34,0,1,0,34,34,34,34,0,0,0-34-34Z"/>
    </g>
    <g>
      <rect class="cls-2" x="1217.5" y="574.5" width="27" height="44" transform="translate(-105.36 304.43) rotate(-13.52)"/>
      <path d="M1238.61,572.56l10.06,41.8-25.28,6.08-10.06-41.8,25.28-6.08m.74-1.21-27.22,6.55,10.52,43.75,27.22-6.55-10.52-43.75Z"/>
    </g>
  </g>
  <g id="ring2">
    <g>
      <circle class="cls-1" cx="1351" cy="593" r="32.5"/>
      <path d="M1351,561a32,32,0,1,1-32,32,32,32,0,0,1,32-32m0-1a33,33,0,1,0,33,33,33,33,0,0,0-33-33Z"/>
    </g>
    <g>
      <path class="cls-3" d="M1350.72,616a17.65,17.65,0,0,1-3.75-.41,17.35,17.35,0,0,1,3.65-34.32,17.65,17.65,0,0,1,3.75.41,17.35,17.35,0,0,1-3.65,34.32Z"/>
      <path d="M1350.62,581.76h0a17.26,17.26,0,0,1,3.64.39,16.91,16.91,0,0,1,10.65,7.38,16.68,16.68,0,0,1,2.31,12.7,17,17,0,0,1-16.5,13.26,17.2,17.2,0,0,1-3.64-.4,16.85,16.85,0,0,1,3.54-33.33m0-1a17.85,17.85,0,0,0-3.76,35.31,18.32,18.32,0,0,0,3.86.42,17.85,17.85,0,0,0,3.75-35.31,18.15,18.15,0,0,0-3.85-.42Z"/>
    </g>
    <g>
      <rect x="1342.47" y="578.72" width="20.53" height="19.74" transform="translate(-100.28 843.65) rotate(-33.47)"/>
      <path d="M1355.72,575.39,1366.05,591l-16.29,10.78-10.33-15.63,16.29-10.77M1356,574l-18,11.87,11.44,17.3,18-11.87L1356,574Z"/>
    </g>
    <g>
      <circle class="cls-4" cx="1350.5" cy="597.5" r="11"/>
      <path d="M1350.5,587a10.5,10.5,0,1,1-10.5,10.5,10.51,10.51,0,0,1,10.5-10.5m0-1a11.5,11.5,0,1,0,11.5,11.5,11.5,11.5,0,0,0-11.5-11.5Z"/>
    </g>
  </g>
  <g id="halskaede2">
    <g>
      <circle class="cls-1" cx="1469.5" cy="595.5" r="35"/>
      <path d="M1469.5,561a34.5,34.5,0,1,1-34.5,34.5,34.54,34.54,0,0,1,34.5-34.5m0-1a35.5,35.5,0,1,0,35.5,35.5,35.5,35.5,0,0,0-35.5-35.5Z"/>
    </g>
    <path class="cls-5" d="M1473.5,569.5h-8a12,12,0,0,0-12,12v24a12,12,0,0,0,12,12h8a12,12,0,0,0,12-12v-24A12,12,0,0,0,1473.5,569.5Zm-1.81,17.57c2.37,3.11,4.33,4.94,4.82,8.95.59,4.76.9,10.44-1.78,14.67-3.59,5.67-10.19,4.44-15.15,1.5-5.54-3.28-.5-11.92,5.05-8.64a15.7,15.7,0,0,0,1.95,1c0-.35.11-.69.14-.59-.44-1.87-.1-5.12-.11-7.15v-.2c-.21-.27-.46-.6-.57-.73-1.28-1.52-2.54-3.08-3.68-4.7-2.3-3.28-4.46-7.69-2.29-11.58,2.88-5.16,9.83-4,14.6-3.1,6.32,1.22,3.63,10.86-2.66,9.64l-1-.11C1471.28,586.45,1471.51,586.83,1471.69,587.07Z"/>
  </g>
  <g id="pokal2">
    <g>
      <circle class="cls-1" cx="1573" cy="593" r="30.5"/>
      <path d="M1573,563a30,30,0,1,1-30,30,30,30,0,0,1,30-30m0-1a31,31,0,1,0,31,31,31,31,0,0,0-31-31Z"/>
    </g>
    <g>
      <path class="cls-6" d="M1576.94,614.81c-2,0-4.07-.09-5.4-.15-3.64-.16-9.72-.43-10.16-1.81-.15-.48,1-1.16,2.32-1.88,2-1.13,4.72-2.67,6.13-5.4,1.22-2.35.73-4.05,0-6.42a28.43,28.43,0,0,1-1.19-5.84c-.55-6.13,1.11-12.28,2.5-13.82.19-.21.31-.26.34-.26.89,0,2.84,6.25,3.47,13.6a47,47,0,0,1,.1,6.12c-.09,2.45-.15,3.92,1.14,6.16,1.83,3.14,4.68,4.89,6.76,6.17,1.34.82,2.49,1.53,2.3,2S1584,614.81,1576.94,614.81Z"/>
      <path d="M1571.5,579.87c.9,1.18,2.46,6.76,3,13a47.89,47.89,0,0,1,.1,6.06c-.09,2.45-.16,4.07,1.21,6.43,1.89,3.25,4.8,5,6.93,6.35a10.17,10.17,0,0,1,2.06,1.47c-.19.22-1.37,1.13-7.85,1.13-2,0-4-.09-5.38-.15-2.7-.12-8.93-.39-9.67-1.4a10.23,10.23,0,0,1,2.06-1.36c2-1.15,4.84-2.74,6.33-5.6,1.31-2.52.76-4.4.07-6.78a28.53,28.53,0,0,1-1.18-5.76c-.58-6.52,1.33-12.24,2.33-13.39m0-1.14h0c-1.54,0-4,7.22-3.33,14.62.57,6.42,3.08,8.38,1.21,12-2.46,4.74-9.1,5.74-8.49,7.66.55,1.72,6.15,2,10.61,2.16,1.38.06,3.38.15,5.43.15,4,0,8.26-.33,8.82-1.83.73-2-5.88-3.09-9.09-8.62-2-3.45-.59-5-1.19-12.07-.51-6.08-2.34-14.06-4-14.06Z"/>
    </g>
    <g>
      <path class="cls-6" d="M1574.24,590.68c-6.23,0-12.42-5.69-15.07-11-1.79-3.61-1.93-6.84-.38-8.87,3.07-4,13.14-4.13,16.45-4.16l2,0c4.22,0,8.4.29,10.49,2.32,1.94,1.9,2.17,5.52.61,9.69-2.14,5.74-7.47,11.73-13.51,12.08Z"/>
      <path d="M1577.21,567.08h0c4.11,0,8.18.27,10.14,2.18,1.8,1.75,2,5.17.5,9.15-2.09,5.59-7.25,11.42-13.08,11.76h-.53c-6,0-12-5.55-14.62-10.78-1.7-3.42-1.86-6.46-.43-8.33,2.92-3.84,12.8-3.94,16-4l2,0m0-1-2,0c-3.62,0-13.62.13-16.84,4.36-4.75,6.23,5.82,20.72,15.85,20.72a5.72,5.72,0,0,0,.59,0c10.36-.59,18.83-17.14,13.22-22.61-2.25-2.2-6.64-2.47-10.84-2.47Z"/>
    </g>
  </g>
  <g id="diadem2">
    <g>
      <circle class="cls-1" cx="1678" cy="591" r="31.5"/>
      <path d="M1678,560a31,31,0,1,1-31,31,31,31,0,0,1,31-31m0-1a32,32,0,1,0,32,32,32,32,0,0,0-32-32Z"/>
    </g>
    <g>
      <path class="cls-7" d="M1701.5,610.12c-.23-.22-.59-.63-1-1a39.83,39.83,0,0,0-4.43-4.37,35.41,35.41,0,0,0-4.26-3,24.68,24.68,0,0,0-6.07-2.75,55.51,55.51,0,0,0-7.23-1.09h-.47v.2c-1.35.2-4,.63-6.12,1.18a30.19,30.19,0,0,0-7.83,3.36,36.74,36.74,0,0,0-7.75,6.72l-.37.41.49-.85c1.73-3,5-8.53,5.29-15.73a37,37,0,0,0-1.68-11.83,17.9,17.9,0,0,1-.58-2.54,30.36,30.36,0,0,1,2.41,3.41c2.16,3.33,3.56,5.36,4.81,5.36a1.09,1.09,0,0,0,.67-.23c1.16-.92.89-4.49.35-9.84a46,46,0,0,1-.36-5.05c.39.74.93,2.18,1.39,3.39,1.79,4.76,3.2,8.12,5,8.12a1.09,1.09,0,0,0,.26,0c1.8-.35,2.66-4.11,3.69-9.38.22-1.11.47-2.39.69-3.23.07.74.11,1.79.14,2.7.16,4.45.41,7.94,1.89,8.94a1.55,1.55,0,0,0,.88.27c1.78,0,3.84-3,5.83-6,1.06-1.57,2.67-3.94,3.22-4,.49.48-.11,4.12-.51,6.53-.71,4.22-1.09,6.85-.18,7.75a1,1,0,0,0,.73.3c1.29,0,3-2.31,5.72-6.13,1.41-2,3.55-5,4.21-5.05a13.67,13.67,0,0,1-.64,3.41,46.67,46.67,0,0,0-1.74,13.23,47.94,47.94,0,0,0,2.72,13.89A21.78,21.78,0,0,1,1701.5,610.12Z"/>
      <path d="M1690.06,574.14a37.9,37.9,0,0,1-.68,5.59c-.75,4.51-1.12,7.11,0,8.19a1.53,1.53,0,0,0,1.09.44c1.48,0,3-1.93,6.13-6.34,1-1.35,2.27-3.21,3.17-4.2-.12.62-.32,1.41-.5,2.14a47.61,47.61,0,0,0-1.75,13.37,48.75,48.75,0,0,0,2.74,14l.3.93a39.58,39.58,0,0,0-4.08-4,35.47,35.47,0,0,0-4.33-3.09,25.11,25.11,0,0,0-6.18-2.8,56.65,56.65,0,0,0-7.37-1.11h-1v.26c-1.46.23-3.87.64-5.77,1.14a30.41,30.41,0,0,0-8,3.42,31.61,31.61,0,0,0-5.46,4.32,31.68,31.68,0,0,0,3.88-13.33,37.77,37.77,0,0,0-1.69-12l-.07-.23c.34.5.68,1,1,1.5,2.24,3.47,3.7,5.59,5.23,5.59a1.58,1.58,0,0,0,1-.34c1.32-1,1.17-4.08.54-10.28-.07-.67-.15-1.43-.21-2.15l.27.72c1.93,5.1,3.35,8.44,5.46,8.44l.36,0c2-.41,2.92-3.89,4-9.2.18,4.13.52,7.11,2.07,8.14a2,2,0,0,0,1.15.36c1.9,0,3.71-2.45,6.24-6.18a35.72,35.72,0,0,1,2.48-3.37M1678.52,570c-1,0-1.93,12.88-4.56,13.4a.5.5,0,0,1-.17,0c-2.62,0-5.41-11.94-6.54-11.94l-.08,0c-1.11.62,1.77,14-.06,15.41a.6.6,0,0,1-.36.12c-1.94,0-6.13-8.9-7.41-8.9a.24.24,0,0,0-.18.07c-.83.84,2.5,7,2.13,14.91-.47,10.28-6.91,17.06-6.33,18a.13.13,0,0,0,.12.07c.73,0,3.78-4.76,9.31-8.17a29.86,29.86,0,0,1,7.69-3.3c2.86-.75,6.92-1.3,6.92-1.3l-.44-.07a57.2,57.2,0,0,1,7.09,1.07,23.92,23.92,0,0,1,5.95,2.7,33.54,33.54,0,0,1,4.2,3c3.77,3.15,5.25,5.68,5.9,5.68a.21.21,0,0,0,.17-.08c.89-1-3.12-7.69-3.39-17.4-.27-9.47,3.18-15.92,2.16-17a.36.36,0,0,0-.28-.12c-1.85,0-7.77,11.18-9.93,11.18a.54.54,0,0,1-.38-.15c-1.53-1.52,2.11-12.94.64-14.31a.44.44,0,0,0-.3-.12c-1.79,0-6.31,9.91-9.05,9.91a1,1,0,0,1-.6-.19c-2.3-1.54-1.23-12.31-2.19-12.5Z"/>
    </g>
  </g>
  <g id="nagini2">
    <g>
      <circle class="cls-1" cx="1795" cy="594" r="31.5"/>
      <path d="M1795,563a31,31,0,1,1-31,31,31,31,0,0,1,31-31m0-1a32,32,0,1,0,32,32,32,32,0,0,0-32-32Z"/>
    </g>
    <g>
      <path class="cls-8" d="M1787.08,619.45a9.32,9.32,0,0,1-5.82-1.72c-3.58-2.75-3.49-8.05-2.22-12.1.84-2.68,1.9-3.85,2.18-3.86s.63,1.46.87,2.35c.73,2.68,1.73,6.35,5,7.35a6.57,6.57,0,0,0,1.88.26,14.68,14.68,0,0,0,9.6-4.44,6.77,6.77,0,0,0,2.24-4.74c-.12-3.29-4.06-5.11-8.23-7-4.48-2.07-9.55-4.4-10.64-8.86-1.48-6.06,5.33-11.82,6.11-12.46,1.74-1.42,6.3-4.71,11.27-4.71a10,10,0,0,1,3.1.48c2.2.71,4.43,2.31,5.08,3.64a1.16,1.16,0,0,1,.13.89c-.35,1-3,1.08-5.58,1.19-3.87.16-8.68.36-10.93,3.22-2.5,3.16-.49,7.65-.06,8.52,2.24,4.55,7.22,6.15,11.62,7.55,3.78,1.22,7.36,2.36,8.47,5.17,2,5-4.84,11.53-9.6,14.52C1798.72,616.45,1792.49,619.45,1787.08,619.45Z"/>
      <path d="M1799.32,569v1a9.56,9.56,0,0,1,2.94.45c2,.66,4.2,2.18,4.79,3.39a.71.71,0,0,1,.11.5c-.24.65-3.18.78-5.13.86-4,.16-8.91.37-11.31,3.41-2.68,3.4-.56,8.14-.11,9,2.34,4.74,7.43,6.37,11.91,7.81,3.83,1.23,7.14,2.29,8.17,4.87,1.76,4.42-4.44,10.8-9.41,13.91-2.78,1.75-8.9,4.7-14.2,4.7a8.81,8.81,0,0,1-5.52-1.62c-2.7-2.08-3-5.55-2.75-8.09a14.16,14.16,0,0,1,2.27-6.74,17.53,17.53,0,0,1,.53,1.75c.72,2.64,1.8,6.62,5.33,7.7a6.92,6.92,0,0,0,2,.28,15.2,15.2,0,0,0,10-4.6,7.18,7.18,0,0,0,2.38-5.1c-.14-3.6-4.21-5.47-8.52-7.46s-9.33-4.3-10.36-8.52c-1.41-5.75,5.18-11.34,5.94-11.95,1.69-1.39,6.15-4.6,11-4.6v-1m0,0c-5.68,0-10.8,4.18-11.58,4.82s-7.85,6.57-6.29,13c2.17,8.87,18.62,9.44,18.86,15.78.15,4.09-6.56,8.66-11.34,8.66a5.65,5.65,0,0,1-1.73-.24c-4.83-1.47-4.39-9.72-6-9.72h0c-2,.07-6.54,12-.25,16.86a9.85,9.85,0,0,0,6.13,1.82c5.35,0,11.51-2.83,14.74-4.85,4.89-3.07,11.9-9.85,9.8-15.13-2.54-6.4-16-4.48-20.11-12.75-.25-.5-2.38-5,0-8,3.77-4.77,15.52-1.63,16.59-4.53.59-1.63-2.5-4.21-5.53-5.19a10.57,10.57,0,0,0-3.25-.5Z"/>
    </g>
    <g>
      <path d="M1801.31,574.08a1.37,1.37,0,1,1,1.64-1.34A1.51,1.51,0,0,1,1801.31,574.08Z"/>
      <path d="M1801.31,571.9c.62,0,1.14.39,1.14.84s-.52.84-1.14.84-1.13-.39-1.13-.84.52-.84,1.13-.84m0-1a1.86,1.86,0,1,0,2.14,1.84,2,2,0,0,0-2.14-1.84Z"/>
    </g>
  </g>
  <g id="quirrell2">
    <g>
      <circle class="cls-1" cx="1105.5" cy="594.5" r="31"/>
      <path d="M1105.5,564a30.5,30.5,0,1,1-30.5,30.5,30.53,30.53,0,0,1,30.5-30.5m0-1a31.5,31.5,0,1,0,31.5,31.5,31.5,31.5,0,0,0-31.5-31.5Z"/>
    </g>
    <ellipse class="cls-9" cx="1106.25" cy="594.96" rx="12.29" ry="16.35"/>
    <ellipse class="cls-10" cx="1120.35" cy="599.69" rx="4.63" ry="22.81"/>
    <ellipse class="cls-10" cx="1106.25" cy="580.33" rx="20.75" ry="10.33"/>
    <ellipse class="cls-11" cx="1109.67" cy="594.96" rx="2.01" ry="2.15"/>
    <ellipse class="cls-11" cx="1102.42" cy="594.96" rx="1.61" ry="1.72"/>
  </g>
  <g id="harry2">
    <g>
      <circle class="cls-1" cx="1891.5" cy="593.5" r="31"/>
      <path d="M1891.5,563a30.5,30.5,0,1,1-30.5,30.5,30.53,30.53,0,0,1,30.5-30.5m0-1a31.5,31.5,0,1,0,31.5,31.5,31.5,31.5,0,0,0-31.5-31.5Z"/>
    </g>
    <path class="cls-12" d="M1890.33,588.21c1.16,2.1,21.32-5.71,22.61-3.38,1,1.75-10.16,6.49-23,18.56-7.83,7.36-13.14,14.5-13.66,14.17s2.38-4.35,7.07-12.82c3.88-7,4.31-8.45,3.58-9.45-2.51-3.41-15.82,2-16.59.51-1.41-2.67,41.66-23.65,42.21-22.77C1913,573.68,1889,585.85,1890.33,588.21Z"/>
  </g>
  <g id="doed">
    <g>
      <circle class="cls-1" cx="1993.5" cy="588.5" r="31"/>
      <path d="M1993.5,558a30.5,30.5,0,1,1-30.5,30.5,30.53,30.53,0,0,1,30.5-30.5m0-1a31.5,31.5,0,1,0,31.5,31.5,31.5,31.5,0,0,0-31.5-31.5Z"/>
    </g>
    <line class="cls-13" x1="1993.74" y1="566" x2="1993.74" y2="615.43"/>
    <line class="cls-13" x1="1975.74" y1="576.32" x2="2012" y2="578.67"/>
  </g>
</svg>
